<svg width="1200" height="800" viewBox="0 0 317.5 211.6" xmlns="http://www.w3.org/2000/svg">
 <path style="fill:#1a1a1a;fill-opacity:1" d="M0 0h317.5v211.667H0z"/>
<path style="fill:#f32323;fill-opacity:1" d="M171.265 14.817a53.565 53.565 0 0 1 28.535 8.277 46.267 46.267 0 0 0-9.343-.98 46.267 46.267 0 0 0-46.267 46.267 46.267 46.267 0 0 0 46.267 46.267 46.267 46.267 0 0 0 9.343-.98 53.565 53.565 0 0 1-28.535 8.278A53.565 53.565 0 0 1 117.7 68.381a53.565 53.565 0 0 1 53.565-53.564z"/>
<path style="fill:#f32323;fill-opacity:1;fill-rule:evenodd;" d="M159.236 121.796c-4.9 8.337-15.518 37.738-1.087 38.095 15.884.223 5.418-29.76 1.087-38.095z"/>
<path d="m32.79 188.9-5.92-10.5q.17 1.5.17 2.5v8h-2.53v-13.6h3.25l6.01 10.6q-.17-1.5-.17-2.7v-7.9h2.53v13.6zM52 182q0 2.2-.84 3.8-.84 1.6-2.41 2.4-1.56.9-3.64.9-3.2 0-5.03-1.9-1.81-1.9-1.81-5.2 0-3.2 1.81-5.1 1.82-1.8 5.05-1.8 3.23 0 5.04 1.8Q52 178.8 52 182zm-2.91 0q0-2.2-1.04-3.4-1.04-1.3-2.92-1.3-1.91 0-2.95 1.3-1.05 1.2-1.05 3.4 0 2.3 1.06 3.6 1.08 1.2 2.92 1.2 1.91 0 2.94-1.2 1.04-1.3 1.04-3.6zM62.42 188.9l-5.92-10.5q.17 1.5.17 2.5v8h-2.52v-13.6h3.25l6.01 10.6q-.18-1.5-.18-2.7v-7.9h2.53v13.6zM68.41 188.9v-13.6H79.1v2.2h-7.84v3.4h7.25v2.2h-7.25v3.6h8.24v2.2zM92.73 189.1q-2.81 0-4.3-1.4-1.49-1.4-1.49-3.9v-8.5h2.85v8.3q0 1.6.76 2.4.77.9 2.26.9 1.52 0 2.34-.9.82-.9.82-2.5v-8.2h2.85v8.4q0 2.5-1.6 4-1.59 1.4-4.49 1.4zM109.6 188.9l-5.9-10.5q.2 1.5.2 2.5v8h-2.6v-13.6h3.3l6 10.6q-.2-1.5-.2-2.7v-7.9h2.6v13.6zM127.7 182q0 2.1-.8 3.7-.8 1.5-2.3 2.4-1.5.8-3.5.8h-5.5v-13.6h4.9q3.5 0 5.3 1.7 1.9 1.8 1.9 5zm-2.8 0q0-2.2-1.2-3.3-1.1-1.2-3.2-1.2h-2v9.2h2.4q1.8 0 2.9-1.3 1.1-1.2 1.1-3.4zM129.9 188.9v-13.6h10.7v2.2h-7.9v3.4h7.3v2.2h-7.3v3.6h8.3v2.2zM152.4 188.9l-3.2-5.2h-3.3v5.2h-2.8v-13.6h6.7q2.5 0 3.8 1 1.3 1.1 1.3 3 0 1.5-.8 2.5-.8 1.1-2.2 1.4l3.7 5.7zm-.3-9.4q0-2-2.6-2h-3.6v4h3.7q1.2 0 1.8-.5.7-.6.7-1.5zM171.1 188.9l-5.9-10.5q.1 1.5.1 2.5v8h-2.5v-13.6h3.3l6 10.6q-.2-1.5-.2-2.7v-7.9h2.5v13.6zM190.3 182q0 2.2-.8 3.8-.9 1.6-2.4 2.4-1.6.9-3.7.9-3.2 0-5-1.9-1.8-1.9-1.8-5.2 0-3.2 1.8-5.1 1.8-1.8 5-1.8 3.3 0 5.1 1.8 1.8 1.9 1.8 5.1zm-2.9 0q0-2.2-1.1-3.4-1-1.3-2.9-1.3t-2.9 1.3q-1.1 1.2-1.1 3.4 0 2.3 1.1 3.6 1.1 1.2 2.9 1.2 1.9 0 2.9-1.2 1.1-1.3 1.1-3.6zM200.7 188.9l-5.9-10.5q.2 1.5.2 2.5v8h-2.6v-13.6h3.3l6 10.6q-.2-1.5-.2-2.7v-7.9h2.6v13.6zM206.7 188.9v-13.6h10.7v2.2h-7.8v3.4h7.2v2.2h-7.2v3.6h8.2v2.2zM234.3 188.9l-1.3-3.5h-5.1l-1.2 3.5h-2.9l5-13.6h3.3l5 13.6zm-3.8-11.5-.1.2-.2.8q-.2.4-1.7 4.9h3.9l-1.3-3.9-.4-1.3zM251 185q0 1.9-1.4 2.9t-3.9 1h-6.8v-13.6h6.2q2.5 0 3.8.9 1.3.8 1.3 2.5 0 1.2-.7 2-.6.8-1.9 1 1.6.2 2.5 1.1.9.8.9 2.2zm-3.7-5.9q0-.9-.6-1.3t-1.7-.4h-3.2v3.4h3.2q1.2 0 1.8-.4.5-.5.5-1.3zm.8 5.7q0-1.9-2.7-1.9h-3.6v3.9h3.7q1.3 0 2-.5.6-.5.6-1.5zM266.4 182q0 2.2-.8 3.8-.9 1.6-2.4 2.4-1.6.9-3.7.9-3.2 0-5-1.9-1.8-1.9-1.8-5.2 0-3.2 1.8-5.1 1.8-1.8 5-1.8 3.3 0 5.1 1.8 1.8 1.9 1.8 5.1zm-2.9 0q0-2.2-1.1-3.4-1-1.3-2.9-1.3t-2.9 1.3q-1.1 1.2-1.1 3.4 0 2.3 1.1 3.6 1.1 1.2 2.9 1.2 1.9 0 2.9-1.2 1.1-1.3 1.1-3.6zM275.3 188.9h-2.9l-5-13.6h2.9l2.8 8.7q.3.9.7 2.6l.2-.8.5-1.8 2.8-8.7h3zM281.7 188.9v-13.6h10.7v2.2h-7.8v3.4h7.2v2.2h-7.2v3.6h8.2v2.2z"/>
</svg>
